<?xml version="1.0" encoding="UTF-8" standalone="no"?>
<!DOCTYPE svg PUBLIC "-//W3C//DTD SVG 1.1//EN" "http://www.w3.org/Graphics/SVG/1.1/DTD/svg11.dtd">
<svg width="100%" height="100%" viewBox="0 0 750 591" version="1.1" xmlns="http://www.w3.org/2000/svg" xmlns:xlink="http://www.w3.org/1999/xlink" xml:space="preserve" xmlns:serif="http://www.serif.com/" style="fill-rule:evenodd;clip-rule:evenodd;stroke-linejoin:round;stroke-miterlimit:2;">
    <g transform="matrix(1,0,0,1,-3634.56,-5568.61)">
        <g id="water">
        </g>
        <g id="Artboard3.2" transform="matrix(0.717498,0,0,0.572003,2967.74,4888.52)">
            <rect x="929.365" y="1188.98" width="1044.76" height="1032.23" style="fill:none;"/>
            <g>
                <g id="Layer43" transform="matrix(1.39373,0,0,1.74824,-4164.9,-8546.31)">
                    <g transform="matrix(0.829098,0,0,0.839606,689.174,960.184)">
                        <path d="M4082.73,5736.27C4082.73,5736.27 4005.97,5722.57 3968.53,5727.82C3931.09,5733.06 3892.89,5739.35 3859.67,5727.82C3826.44,5716.28 3762.26,5724.72 3749.63,5739.55C3737.01,5754.38 3715.24,5774.53 3723.39,5818.84C3731.53,5863.15 3708.18,5843.08 3698.22,5889.92C3688.25,5936.76 3707.45,5916.23 3737.16,5946.3C3766.87,5976.36 3823.18,5998.18 3873.38,5998.22C3923.59,5998.27 3889.05,5994.94 3968.53,6014.12C4047.9,6033.27 4184.54,6008.24 4206.75,6007.1C4252.41,6004.75 4322.98,5984.88 4361.65,5946.3C4382.63,5925.36 4334.48,5870.04 4361.65,5839.5C4388.82,5808.95 4366.86,5798.72 4330.31,5780.27C4293.76,5761.82 4287.33,5744.02 4219.85,5752.52C4152.36,5761.02 4156.09,5753.87 4082.73,5736.27Z" style="fill:rgb(231,243,246);"/>
                    </g>
                    <g transform="matrix(-0.794314,0.146156,-0.221152,-1.2019,8778.78,12220.4)">
                        <path d="M4231.47,5819.37C4271.71,5818.35 4304.84,5835.53 4301.52,5811.84C4298.48,5790.14 4273.29,5796.1 4222.3,5785.44C4155.46,5771.47 4126.77,5781.76 4089.58,5790.74C4052.38,5799.73 4073.06,5813.01 4103.11,5817.48C4133.16,5821.96 4119.01,5787.72 4182.76,5816.91C4222.14,5834.94 4208.75,5819.94 4231.47,5819.37Z" style="fill:rgb(203,220,225);"/>
                    </g>
                    <g transform="matrix(1.24431,-0.167349,0.173811,1.29236,-1608.02,-1164.02)">
                        <path d="M3803.25,5869.35C3803.25,5869.35 3784.91,5889.11 3778.13,5899.33C3771.35,5909.55 3770.14,5916.16 3770.96,5923.45C3771.78,5930.73 3780.13,5932.23 3793.11,5934.44C3806.09,5936.64 3840.99,5938.14 3851.21,5934.44C3861.43,5930.73 3876.24,5929.56 3877.84,5923.45C3879.44,5917.33 3875.51,5904.24 3869.33,5899.33C3863.16,5894.42 3854.25,5885.18 3851.21,5880.65C3848.17,5876.11 3837.44,5872.38 3836.46,5869.35C3835.91,5867.64 3837.76,5864.25 3836.46,5859.58C3835.23,5855.14 3826.91,5852.85 3828.54,5849.99C3831.05,5845.59 3839.39,5833.93 3842.53,5825.93C3843.83,5822.59 3844.23,5819.89 3842.93,5818.61C3836.13,5811.89 3829.58,5825.8 3822.08,5823.28C3815.95,5821.22 3809.97,5826.29 3802.68,5828.99C3792.73,5832.68 3786.92,5830.3 3784.62,5832.91C3780.64,5837.45 3787.04,5840.64 3791.22,5845.16C3795.41,5849.69 3796.93,5850.38 3799.09,5854.74C3801.24,5859.1 3802.72,5857.46 3803.25,5859.58C3803.46,5860.41 3801.93,5862.1 3801.91,5863.84C3801.87,5866.53 3803.25,5869.35 3803.25,5869.35Z" style="fill:rgb(62,79,102);"/>
                        <path d="M3803.51,5859.76C3803.51,5859.76 3810.94,5858.75 3816.78,5856.15C3822.62,5853.56 3825.52,5852.48 3829.26,5853.07C3833,5853.65 3835.97,5857.37 3836.95,5858.77C3837.87,5860.1 3836.63,5868.45 3836.63,5868.69C3836.64,5868.94 3829.76,5869.18 3822.87,5869.79C3815.98,5870.39 3806.56,5871.05 3803.51,5869.79C3800.46,5868.52 3797.3,5863.53 3803.51,5859.76Z" style="fill:rgb(78,205,93);"/>
                    </g>
                    <g transform="matrix(1.21076,0,0,1.19636,-789.34,-1124.51)">
                        <path d="M3863.91,5773.92C3863.91,5773.92 3861.7,5764.2 3842.26,5773.54C3822.81,5782.89 3822.58,5778.01 3818.16,5792.76C3813.74,5807.51 3827.58,5810.16 3842.26,5817.48C3856.93,5824.79 3863.4,5825.57 3881.98,5828.63C3900.56,5831.7 3919.4,5820.96 3933.09,5817.48C3946.78,5813.99 3961,5809.05 3947.84,5801.37C3934.68,5793.69 3925.63,5793.99 3915.68,5792.76C3913.33,5792.47 3909.18,5791.26 3904.22,5789.58C3888.26,5784.17 3863.91,5773.92 3863.91,5773.92Z" style="fill:rgb(203,220,225);"/>
                    </g>
                </g>
                <g transform="matrix(0.864281,0.240425,-0.160926,0.910224,-1048.21,-4471.98)">
                    <path d="M4034.2,5947.97C4034.2,5947.97 4042.53,5963.24 4000.16,5968.97C3957.8,5974.7 3926.59,5977.57 3886.59,5978.86C3853.11,5979.94 3795.92,5971.58 3812.3,5929.86C3821.67,5906 3844.37,5900.34 3869.16,5906.8C3893.96,5913.25 3947.46,5912.27 3962.77,5906.8C3978.09,5901.32 4004.19,5896.16 4014.4,5906.8C4024.62,5917.43 4041.98,5926.02 4034.2,5947.97Z" style="fill:rgb(203,220,225);"/>
                </g>
                <g transform="matrix(2.24351,0.754054,-0.601146,2.81417,-3928.06,-17538.7)">
                    <path d="M3928.38,5778.79C3928.38,5778.79 3928.32,5782.21 3928.38,5793.96C3928.44,5808.6 3927.79,5806.26 3927.69,5810.8C3927.63,5813.48 3926.66,5814.72 3924.9,5816.73C3923.68,5818.13 3922.08,5819.89 3920.15,5822.76C3915.44,5829.77 3915.11,5833.49 3916.22,5837.59C3917.16,5841.05 3914.83,5845.8 3922.13,5847.23C3923.45,5847.49 3929.43,5849.95 3931.34,5850.15C3937.16,5850.75 3937.95,5849.4 3942.2,5849.66C3945.9,5849.89 3949.56,5849.55 3951.74,5848.49C3953.92,5847.43 3954.85,5843.44 3955.49,5842.14C3956.8,5839.46 3955.07,5828.23 3953.42,5824.03C3950.64,5816.92 3943.28,5812.73 3943.28,5812.73C3943.28,5812.73 3942.34,5790.71 3941.1,5779.8C3940.86,5777.71 3929.88,5777.82 3928.38,5778.79Z" style="fill:rgb(183,183,183);"/>
                </g>
                <g transform="matrix(1.39373,0,0,1.74824,-4063.75,-8520.41)">
                    <path d="M3923.95,5854.57L3945.39,5862.5L3949.39,5843.73C3949.39,5843.73 3938.56,5835.28 3929.01,5836.79C3929.01,5836.79 3923.9,5852.59 3923.95,5854.57Z" style="fill:rgb(62,79,102);"/>
                </g>
                <g transform="matrix(1.39373,0,0,1.74824,-4063.75,-8520.41)">
                    <path d="M3894.54,5906.8C3894.54,5906.8 3914.78,5922.52 3949.39,5924.19C3949.39,5924.19 3949.85,5941.51 3946.57,5947.97C3946.57,5947.97 3904.11,5945.79 3883.47,5925.39C3883.47,5925.39 3882.39,5915.96 3894.54,5906.8Z" style="fill:rgb(160,160,160);"/>
                </g>
                <g transform="matrix(3.14589,0,0,3.89914,-11874.6,-21186.2)">
                    <path d="M4175.42,5831.78C4175.42,5831.78 4169.94,5834.74 4167.82,5839.44C4165.71,5844.13 4164.95,5846.72 4164.95,5846.72C4164.95,5846.72 4174.37,5861.28 4199.24,5851.34C4199.24,5851.34 4201.51,5833.07 4199.24,5828.51C4196.97,5823.96 4194.2,5829.77 4191.54,5831.78C4188.87,5833.8 4186.15,5835.93 4186.45,5828.51C4186.76,5821.1 4189.14,5818.97 4186.45,5818.23C4183.77,5817.48 4181.46,5819.44 4180.86,5821.44C4180.27,5823.45 4180.18,5828.39 4175.42,5831.78Z" style="fill:rgb(78,205,93);"/>
                </g>
                <g transform="matrix(3.14589,0,0,3.89914,-11874.6,-21186.2)">
                    <path d="M4167.86,5848.11C4167.86,5848.11 4166.9,5841.6 4172.6,5839.41C4178.3,5837.23 4179.68,5838.48 4183.75,5839.41C4187.82,5840.35 4186.64,5845.03 4186.9,5848.11C4187.16,5851.18 4186.9,5854.81 4186.9,5854.81C4186.83,5855.24 4168.83,5855.22 4167.86,5848.11Z" style="fill:white;"/>
                </g>
                <g transform="matrix(3.14589,0,0,3.89914,-11874.6,-21186.2)">
                    <path d="M4168.74,5850.18C4168.74,5850.18 4172.02,5843.57 4175.66,5843.27C4179.29,5842.98 4180.79,5844.36 4181.39,5846.54C4181.99,5848.72 4180.16,5854.94 4180.6,5854.81C4180.97,5854.7 4176.51,5855.18 4171.1,5852.19C4170.03,5851.6 4169.7,5851.32 4168.74,5850.18Z" style="fill:rgb(62,79,102);"/>
                </g>
                <g transform="matrix(3.14589,0,0,3.89914,-11874.6,-21186.2)">
                    <path d="M4182.95,5817.79C4182.95,5817.79 4179.83,5820.4 4180.78,5823.92C4181.73,5827.45 4181.53,5832.94 4182.95,5834.76C4184.38,5836.58 4186.76,5838.59 4190.28,5837.3C4193.81,5836 4197.68,5833.62 4198.55,5832.6C4199.68,5831.28 4200.44,5826.83 4197.64,5826.79C4194.85,5826.76 4192.01,5831.91 4190.28,5832.6C4188.56,5833.29 4186.91,5834.07 4187.02,5829.98C4187.15,5825.43 4187.75,5821.16 4187.85,5819.79C4187.95,5818.42 4185.14,5816.57 4182.95,5817.79Z" style="fill:rgb(64,182,78);"/>
                </g>
                <g transform="matrix(3.14589,0,0,3.89914,-11874.6,-21186.2)">
                    <ellipse cx="4175.64" cy="5846.64" rx="1.768" ry="2.034" style="fill:white;"/>
                </g>
            </g>
        </g>
    </g>
</svg>
